<svg width="50" height="50" viewBox="0 0 50 50" version="1.1" xmlns="http://www.w3.org/2000/svg" xmlns:xlink="http://www.w3.org/1999/xlink">
<title>Experts</title>
<desc>Created using Figma</desc>
<g id="Canvas" transform="translate(-19122 405)">
<g id="Experts">
<g id="student">
<g id="icon-bg">
<g id="student">
<g id="shadow">
<use xlink:href="#path0_fill" transform="translate(19138.7 -363.333)" fill="#A6D0E5"/>
</g>
</g>
</g>
<g id="icon">
<g id="Vector 2">
<use xlink:href="#path1_fill" transform="translate(19138 -379.508)" fill="#B1D6F0"/>
</g>
<g id="Vector 2 (Stroke)">
<use xlink:href="#path2_fill" transform="translate(19137.5 -380.008)" fill="#459DD7"/>
</g>
<g id="Vector">
<use xlink:href="#path3_fill" transform="translate(19130 -389.091)" fill="#FFFFFF"/>
</g>
<g id="Vector (Stroke)">
<use xlink:href="#path4_fill" transform="translate(19129.5 -389.591)" fill="#459DD7"/>
</g>
<g id="Group 2">
<g id="Vector 2 (Stroke)">
<use xlink:href="#path5_fill" transform="translate(19146.1 -384.312)" fill="#459DD7"/>
</g>
<g id="Vector 3">
<use xlink:href="#path6_fill" transform="translate(19156.9 -375.82)" fill="#B1D6F0"/>
</g>
<g id="Vector 3 (Stroke)">
<use xlink:href="#path7_fill" transform="translate(19156.4 -376.32)" fill="#459DD7"/>
</g>
<g id="Ellipse">
<use xlink:href="#path8_fill" transform="translate(19156.5 -376.557)" fill="#B1D6F0"/>
</g>
<g id="Ellipse (Stroke)">
<use xlink:href="#path9_fill" transform="translate(19156.5 -376.557)" fill="#459DD7"/>
</g>
</g>
<g id="Vector 4 (Stroke)">
<use xlink:href="#path10_fill" transform="translate(19139.8 -379.148)" fill="#459DD7"/>
</g>
</g>
</g>
</g>
</g>
<defs>
<path id="path0_fill" d="M 16.6667 1.53509C 16.6667 2.38289 12.9357 3.07017 8.33333 3.07017C 3.73096 3.07017 0 2.38289 0 1.53509C 0 0.687282 3.73096 0 8.33333 0C 12.9357 0 16.6667 0.687282 16.6667 1.53509Z"/>
<path id="path1_fill" d="M 0 5.53279L 0 0L 17.1798 0L 17.1798 5.53279C 16.1086 6.59836 12.9034 8.72951 8.65169 8.72951C 4.4 8.72951 1.11236 6.59836 0 5.53279Z"/>
<path id="path2_fill" fill-rule="evenodd" d="M 0 0L 18.1798 0L 18.1798 6.24066L 18.0324 6.38726C 16.8861 7.52757 13.5596 9.72951 9.15169 9.72951C 4.74526 9.72951 1.33905 7.52894 0.154121 6.39385L 0 6.24621L 0 0ZM 1 1L 1 5.81319C 2.17438 6.85015 5.24013 8.72951 9.15169 8.72951C 13.0625 8.72951 16.0509 6.85077 17.1798 5.81858L 17.1798 1L 1 1Z"/>
<path id="path3_fill" d="M 16.0144 12.0009L 1.04525 7.327C 0.423435 7.13285 0 6.55705 0 5.90562C 0 5.2432 0.437593 4.66043 1.07372 4.47566L 16.0733 0.119058C 16.634 -0.043775 17.2299 -0.0394954 17.7882 0.131372L 31.9303 4.46011C 32.5659 4.65467 33 5.24146 33 5.90619C 33 6.55928 32.5808 7.13859 31.9604 7.34272L 17.8462 11.9869C 17.252 12.1824 16.6116 12.1873 16.0144 12.0009Z"/>
<path id="path4_fill" fill-rule="evenodd" d="M 16.4339 0.138901C 17.0879 -0.0510709 17.7832 -0.0460779 18.4345 0.153267L 32.5767 4.48201C 33.4224 4.74089 34 5.52169 34 6.40619C 34 7.27521 33.4421 8.04605 32.6167 8.31767L 18.5025 12.9618C 17.8093 13.1899 17.0621 13.1956 16.3654 12.9781L 1.39623 8.30428C 0.565617 8.04493 0 7.27578 0 6.40562C 0 5.52077 0.58453 4.74231 1.43426 4.49551L 16.4339 0.138901ZM 18.1418 1.10948C 17.6766 0.967087 17.18 0.963521 16.7128 1.09922L 1.71319 5.45582C 1.29066 5.57854 1 5.96563 1 6.40562C 1 6.83831 1.28125 7.22077 1.69427 7.34972L 16.6635 12.0236C 17.1611 12.1789 17.6948 12.1749 18.19 12.0119L 32.3041 7.36777C 32.7194 7.23113 33 6.84335 33 6.40619C 33 5.96123 32.7095 5.56845 32.284 5.43822L 18.1418 1.10948Z"/>
<path id="path5_fill" fill-rule="evenodd" d="M 0.0231174 0.350283C 0.105878 0.0868339 0.386536 -0.059643 0.649985 0.0231174L 12.7417 3.82164L 12.7417 7.87718C 12.7417 8.15333 12.5178 8.37718 12.2417 8.37718C 11.9656 8.37718 11.7417 8.15333 11.7417 7.87718L 11.7417 4.55568L 0.350283 0.97715C 0.0868339 0.89439 -0.059643 0.613732 0.0231174 0.350283Z"/>
<path id="path6_fill" d="M 0 6.63934L 1.35955 0L 2.7191 6.63934L 0 6.63934Z"/>
<path id="path7_fill" fill-rule="evenodd" d="M 1.85956 0C 2.09703 0 2.30175 0.167044 2.34939 0.399695L 3.70894 7.03904C 3.73907 7.18618 3.70146 7.33908 3.6065 7.45545C 3.51154 7.57182 3.3693 7.63934 3.21911 7.63934L 0.500004 7.63934C 0.349806 7.63934 0.207565 7.57182 0.112608 7.45545C 0.0176504 7.33908 -0.0199624 7.18618 0.0101687 7.03904L 1.36972 0.399695C 1.41736 0.167044 1.62208 0 1.85956 0ZM 1.11277 6.63934L 2.60634 6.63934L 1.85956 2.99241L 1.11277 6.63934Z"/>
<path id="path8_fill" d="M 3.70787 1.84426C 3.70787 2.86282 2.87783 3.68852 1.85393 3.68852C 0.830034 3.68852 0 2.86282 0 1.84426C 0 0.825704 0.830034 0 1.85393 0C 2.87783 0 3.70787 0.825704 3.70787 1.84426Z"/>
<path id="path9_fill" fill-rule="evenodd" d="M 1.85393 2.68852C 2.33048 2.68852 2.70787 2.30561 2.70787 1.84426C 2.70787 1.38291 2.33048 1 1.85393 1C 1.37738 1 1 1.38291 1 1.84426C 1 2.30561 1.37738 2.68852 1.85393 2.68852ZM 1.85393 3.68852C 2.87783 3.68852 3.70787 2.86282 3.70787 1.84426C 3.70787 0.825704 2.87783 0 1.85393 0C 0.830034 0 0 0.825704 0 1.84426C 0 2.86282 0.830034 3.68852 1.85393 3.68852Z"/>
<path id="path10_fill" fill-rule="evenodd" d="M 0.5 0C 0.776142 0 1 0.223858 1 0.5L 1 4.18852C 1 4.46467 0.776142 4.68852 0.5 4.68852C 0.223858 4.68852 0 4.46467 0 4.18852L 0 0.5C 0 0.223858 0.223858 0 0.5 0Z"/>
</defs>
</svg>
