<svg width="50" height="50" viewBox="0 0 50 50" version="1.1" xmlns="http://www.w3.org/2000/svg" xmlns:xlink="http://www.w3.org/1999/xlink">
<title>Fun</title>
<desc>Created using Figma</desc>
<g id="Canvas" transform="translate(-19198 405)">
<g id="Fun">
<g id="student">
<g id="icon-bg">
<g id="student">
<g id="shadow">
<use xlink:href="#path0_fill" transform="translate(19214.7 -363.333)" fill="#A6D0E5"/>
</g>
</g>
</g>
<g id="icon">
<g id="handle left (Stroke)">
<use xlink:href="#path1_fill" transform="translate(19210.7 -393.272)" fill="#3295DB"/>
</g>
<g id="handle right (Stroke)">
<use xlink:href="#path2_fill" transform="translate(19224.1 -393.272)" fill="#3295DB"/>
</g>
<g id="stem">
<use xlink:href="#path3_fill" transform="translate(19221 -377.65)" fill="#f7f7f7"/>
</g>
<g id="stem (Stroke)">
<use xlink:href="#path4_fill" transform="translate(19221 -377.65)" fill="#3295DB"/>
</g>
<g id="cup stroke">
<use xlink:href="#path5_fill" transform="translate(19215 -396)" fill="#FFFFFF"/>
</g>
<g id="cup stroke (Stroke)">
<use xlink:href="#path6_fill" transform="translate(19215 -396)" fill="#3295DB"/>
</g>
<g id="base stroke">
<use xlink:href="#path7_fill" transform="matrix(-1 1.22465e-16 -1.22465e-16 -1 19229 -368)" fill="#B1D6F0"/>
</g>
<g id="base stroke (Stroke)">
<use xlink:href="#path8_fill" transform="matrix(-1 1.22465e-16 -1.22465e-16 -1 19229 -368)" fill="#3295DB"/>
</g>
<g id="Star 6">
<use xlink:href="#path9_fill" transform="translate(19219.5 -390)" fill="#B1D6F0"/>
</g>
<g id="Star 6 (Stroke)">
<use xlink:href="#path10_fill" transform="translate(19219.1 -390.375)" fill="#3295DB"/>
</g>
</g>
</g>
</g>
</g>
<defs>
<path id="path0_fill" d="M 16.6667 1.53509C 16.6667 2.38289 12.9357 3.07017 8.33333 3.07017C 3.73096 3.07017 0 2.38289 0 1.53509C 0 0.687282 3.73096 0 8.33333 0C 12.9357 0 16.6667 0.687282 16.6667 1.53509Z"/>
<path id="path1_fill" fill-rule="evenodd" d="M 1 1L 1 4.93421C 1 7.47036 3.05596 9.52632 5.59211 9.52632C 8.12825 9.52632 10.1842 7.47036 10.1842 4.93421L 10.1842 1L 1 1ZM 0.956938 0C 0.428436 0 0 0.428436 0 0.956938L 0 4.93421C 0 8.02264 2.50367 10.5263 5.59211 10.5263C 8.68054 10.5263 11.1842 8.02264 11.1842 4.93421L 11.1842 0L 0.956938 0Z"/>
<path id="path2_fill" fill-rule="evenodd" d="M 10.1842 1L 1 1L 1 4.93421C 1 7.47036 3.05596 9.52632 5.59211 9.52632C 8.12825 9.52632 10.1842 7.47036 10.1842 4.93421L 10.1842 1ZM 0 0L 0 4.93421C 0 8.02264 2.50367 10.5263 5.59211 10.5263C 8.68054 10.5263 11.1842 8.02264 11.1842 4.93421L 11.1842 0.956938C 11.1842 0.428436 10.7558 0 10.2273 0L 0 0Z"/>
<path id="path3_fill" d="M 0 0L 4 0L 4 6L 0 6L 0 0Z"/>
<path id="path4_fill" fill-rule="evenodd" d="M 3 1L 1 1L 1 5L 3 5L 3 1ZM 0 0L 0 6L 4 6L 4 0L 0 0Z"/>
<path id="path5_fill" d="M 0 1.81818C 0 0.814028 0.814028 0 1.81818 0L 14.1818 0C 15.186 0 16 0.814028 16 1.81818L 16 12C 16 16.4183 12.4183 20 8 20L 8 20C 3.58172 20 0 16.4183 0 12L 0 1.81818Z"/>
<path id="path6_fill" fill-rule="evenodd" d="M 14.1818 1L 1.81818 1C 1.36631 1 1 1.36631 1 1.81818L 1 12C 1 15.866 4.13401 19 8 19C 11.866 19 15 15.866 15 12L 15 1.81818C 15 1.36631 14.6337 1 14.1818 1ZM 1.81818 0C 0.814028 0 0 0.814028 0 1.81818L 0 12C 0 16.4183 3.58172 20 8 20C 12.4183 20 16 16.4183 16 12L 16 1.81818C 16 0.814028 15.186 0 14.1818 0L 1.81818 0Z"/>
<path id="path7_fill" d="M 0 0.454545C 0 0.203507 0.203507 0 0.454545 0L 11.5455 0C 11.7965 0 12 0.203507 12 0.454545L 12 0.454545C 12 2.96493 9.96493 5 7.45455 5L 4.54545 5C 2.03507 5 0 2.96493 0 0.454545L 0 0.454545Z"/>
<path id="path8_fill" fill-rule="evenodd" d="M 1.0417 1C 1.30407 2.69914 2.77284 4 4.54545 4L 7.45455 4C 9.22716 4 10.6959 2.69914 10.9583 1L 1.0417 1ZM 0.454545 0C 0.203507 0 0 0.203507 0 0.454545C 0 2.96493 2.03507 5 4.54545 5L 7.45455 5C 9.96493 5 12 2.96493 12 0.454545C 12 0.203507 11.7965 0 11.5455 0L 0.454545 0Z"/>
<path id="path9_fill" d="M 3.64989 0L 4.51151 2.6518L 7.29978 2.6518L 5.04402 4.2907L 5.90564 6.9425L 3.64989 5.3036L 1.39413 6.9425L 2.25575 4.2907L -5.00859e-09 2.6518L 2.78827 2.6518L 3.64989 0Z"/>
<path id="path10_fill" fill-rule="evenodd" d="M 4.02491 0C 4.18737 0 4.33136 0.10461 4.38156 0.259119L 5.15899 2.6518L 7.6748 2.6518C 7.83726 2.6518 7.98124 2.75641 8.03145 2.91092C 8.08165 3.06543 8.02665 3.23469 7.89522 3.33018L 5.85989 4.80894L 6.63731 7.20162C 6.68752 7.35613 6.63252 7.52539 6.50109 7.62088C 6.36966 7.71637 6.19168 7.71637 6.06025 7.62088L 4.02491 6.14212L 1.98958 7.62088C 1.85815 7.71637 1.68017 7.71637 1.54874 7.62088C 1.41731 7.52539 1.36231 7.35613 1.41251 7.20162L 2.18994 4.80894L 0.154606 3.33018C 0.0231733 3.23469 -0.0318235 3.06543 0.0183794 2.91092C 0.0685822 2.75641 0.212566 2.6518 0.375026 2.6518L 2.89084 2.6518L 3.66827 0.259119C 3.71847 0.10461 3.86245 0 4.02491 0ZM 4.02491 1.58853L 3.51994 3.14268C 3.46974 3.29719 3.32575 3.4018 3.16329 3.4018L 1.52916 3.4018L 2.8512 4.36232C 2.98263 4.45781 3.03763 4.62707 2.98743 4.78158L 2.48245 6.33574L 3.80449 5.37522C 3.93593 5.27972 4.1139 5.27972 4.24533 5.37522L 5.56738 6.33574L 5.0624 4.78158C 5.0122 4.62707 5.06719 4.45781 5.19863 4.36232L 6.52067 3.4018L 4.88654 3.4018C 4.72408 3.4018 4.58009 3.29719 4.52989 3.14268L 4.02491 1.58853Z"/>
</defs>
</svg>
