<svg width="50" height="50" viewBox="0 0 50 50" fill="none" xmlns="http://www.w3.org/2000/svg">
<ellipse cx="8.33333" cy="1.53509" rx="8.33333" ry="1.53509" transform="translate(16.666 41.6667)" fill="#A6D0E5"/>
<path fill-rule="evenodd" clip-rule="evenodd" d="M10.0507 0.662131C10.1046 0.282293 10.4298 0 10.8135 0H15.1368C15.5152 0 15.8377 0.274958 15.8974 0.648715L16.0523 1.61717C16.1134 1.99931 16.3909 2.30816 16.7559 2.43677C17.1093 2.56128 17.4547 2.70287 17.7909 2.86054C18.1446 3.02635 18.5632 2.99862 18.8754 2.76398L19.6387 2.19038C19.9454 1.95994 20.375 1.99022 20.646 2.26154L23.7033 5.31861C23.9709 5.58623 24.0045 6.00864 23.7825 6.31519L23.2392 7.06527C23.0106 7.38088 22.9898 7.79885 23.1606 8.14912C23.3314 8.49932 23.4846 8.85967 23.6191 9.229C23.7525 9.59524 24.0677 9.87065 24.4536 9.92539L25.3377 10.0508C25.7176 10.1047 26 10.4298 26 10.8135V15.1369C26 15.5154 25.7252 15.8378 25.3513 15.8976L24.5188 16.0307C24.1328 16.0924 23.8219 16.3748 23.6957 16.7448C23.5603 17.1418 23.4034 17.5288 23.2265 17.9046C23.0598 18.2585 23.0872 18.6779 23.3222 18.9906L23.8094 19.6389C24.0398 19.9455 24.0095 20.3751 23.7384 20.6464L20.6811 23.7035C20.4136 23.9711 19.991 24.0047 19.6846 23.7827L19.0516 23.3242C18.7354 23.0953 18.3166 23.0748 17.9661 23.2466C17.5767 23.4375 17.1747 23.6067 16.7617 23.7525C16.3905 23.8835 16.1103 24.2008 16.0551 24.5905L15.9491 25.3379C15.8951 25.7177 15.5699 26 15.1862 26H10.8629C10.4845 26 10.162 25.725 10.1023 25.3513L9.97987 24.5855C9.91858 24.2022 9.63974 23.8928 9.27336 23.7649C8.85974 23.6204 8.45708 23.4526 8.06695 23.263C7.71084 23.0899 7.2855 23.1149 6.96897 23.3528L6.36102 23.8096C6.05434 24.0401 5.62479 24.0098 5.35372 23.7385L2.29646 20.6814C2.0289 20.4138 1.99529 19.9914 2.21722 19.6848L2.70511 19.0113C2.93141 18.6989 2.95425 18.2858 2.78875 17.9373C2.61052 17.562 2.4524 17.1754 2.3157 16.7787C2.18653 16.4039 1.86781 16.1202 1.47528 16.0645L0.662256 15.9492C0.282355 15.8953 0 15.5702 0 15.1865V10.8631C0 10.4846 0.274832 10.1622 0.648715 10.1024L1.55143 9.95805C1.93084 9.89738 2.23825 9.6233 2.36862 9.26187C2.50204 8.89194 2.65427 8.53098 2.82407 8.18013C2.99627 7.82432 2.97089 7.3998 2.73339 7.08381L2.19038 6.36133C1.95994 6.05465 1.99028 5.6251 2.26135 5.35378L5.31861 2.29671C5.58617 2.02908 6.0087 1.99548 6.31513 2.21753L7.10644 2.79059C7.41819 3.01634 7.8302 3.03958 8.1782 2.87511C8.51408 2.71637 8.85901 2.5737 9.21202 2.4481C9.58196 2.31647 9.86094 1.99974 9.91609 1.61098L10.0507 0.662131ZM12.9999 21.0558C17.3962 21.0558 20.96 17.4919 20.96 13.0957C20.96 8.69941 17.3962 5.13555 12.9999 5.13555C8.60356 5.13555 5.03976 8.69941 5.03976 13.0957C5.03976 17.4919 8.60356 21.0558 12.9999 21.0558Z" transform="translate(12 10)" fill="#DAEAF5" stroke="#469CD6" stroke-linecap="round" stroke-linejoin="round"/>
<path d="M3.37037 0L4.16601 2.57473H6.74074L4.65774 4.16601L5.45337 6.74074L3.37037 5.14947L1.28737 6.74074L2.083 4.16601L-4.62502e-09 2.57473H2.57473L3.37037 0Z" transform="translate(21.6289 19.6296)" fill="#A6D0E5" stroke="#469CD6" stroke-width="0.75" stroke-linecap="round" stroke-linejoin="round"/>
</svg>
